<svg id="Layer_1" data-name="Layer 1" xmlns="http://www.w3.org/2000/svg" viewBox="0 0 1080 1080"><defs><style>.cls-1{fill:#010101;}</style></defs><title>icon</title><path class="cls-1" d="M395.61,329.34s-66.35,2.93-82.93,41c0,0-60.49-46.83-148.3-41S37.54,374.22,25.83,389.83-17.1,444.47,12.17,506.91s155.13,50.74,177.57,0c0,0-82.93,58.54-138.55-19.51,0,0-23.42-40,37.08-78.05,0,0,91.71-48.78,171.72,20.49,0,0,6.83-8.78,42,175.62,0,0-136.59,105.37-11.71,179.52,0,0-53.66-67.32,22.44-112.2,0,0,2.93,4.88,33.17,155.13,0,0,5.85,41-36.1,60.49,0,0,79-29.27,146.35-26.34,0,0-37.08-15.61-41-35.12l-30.25-176.6S421,625,456.1,640.58c0,0,40,32.2-17.56,92.69,0,0,41-5.85,50.74-24.39,0,0,10.73,0,30.25,114.15l-29.27,42s67.32-13.66,218.55,58.54c0,0-108.3-75.13-110.25-109.28L512.69,375.2s6.78-98.25,67.65-144.4c29.6-22.44,82.93-55,245.55-37.08,0,0-76.75-44.23-144.4-36.3,0,0-167.82,15.81-241,136.79,0,0-25.37-28.29-52.69-29.27s-27.32,9.76-31.22,13.66c0,0,26.86-16.59,56.36,46.83,0,0,9,9.76,11,32.2l42,200s-60.17-2.28-92.69,20.49L343.9,425.93S339,362.51,395.61,329.34Z"/><path class="cls-1" d="M739.49,205.43S606.8,202.5,570.7,264.95c0,0-79,95.62,15.61,244.89l19.51,19.51s-44.64-83.66-29.27-162c0,0,14.64-105.36,128.79-80l110.25,523-39,46.83S853.64,868.89,919,769.37c0,0-32.2-9.76-35.12-36.1l-79-395.15s70.25,15.61,93.66,35.12L967.8,704S929.75,863.28,788.27,867.91c0,0-183.18-11.22-141.47-124.89,0,0,22.44-61.47,78.05-51.71,0,0,22.44,6.83,17.56,29.27,0,0,42.69-17.56,28.29-73.18,0,0-39.27-74.64-122.45,5.37,0,0-41.47,35.37-42.44,93.18,0,0,3.41,123.91,115.13,145.86,0,0,130.74,37.08,235.14-72.69S1080,685,1080,685l-39-23.42-28.78-147.33s19.4-4.55,33.66-44.88c0,0-14.39,10.44-24.18,14.15,0,0-10.08,3.9-17.77-22.93L973.16,322l13.66-33.66-43.42,11.22-191.72-60S734.61,242,739.49,205.43Z"/><polygon class="cls-1" points="628.8 413.25 620.67 503.01 530.91 516.02 607.98 557.97 594.33 648.06 661 580.74 742.3 623.67 704.25 543.01 767.02 477.64 681.16 495.2 628.8 413.25"/></svg>