<?xml version="1.0" standalone="no"?>
<!DOCTYPE svg PUBLIC "-//W3C//DTD SVG 20010904//EN"
 "http://www.w3.org/TR/2001/REC-SVG-20010904/DTD/svg10.dtd">
<svg version="1.0" xmlns="http://www.w3.org/2000/svg"
 width="700.000000pt" height="700.000000pt" viewBox="0 0 700.000000 700.000000"
 preserveAspectRatio="xMidYMid meet">
<metadata>
Created by potrace 1.11, written by Peter Selinger 2001-2013
</metadata>
<g transform="translate(0.000000,700.000000) scale(0.100000,-0.100000)"
fill="#000000" stroke="none">
<path d="M4457 5984 c-1 -1 -33 -5 -71 -9 -38 -3 -72 -8 -76 -10 -4 -3 -22 -6
-41 -9 -62 -8 -367 -89 -394 -105 -5 -3 -14 -6 -20 -7 -5 -1 -53 -19 -105 -40
-177 -70 -370 -179 -510 -287 -92 -71 -248 -230 -315 -323 -32 -43 -62 -83
-66 -88 -4 -5 -34 15 -66 43 -57 51 -173 117 -223 126 -45 9 -134 7 -169 -4
-34 -10 -81 -47 -81 -62 0 -5 12 -6 28 -3 90 17 213 -92 309 -275 15 -29 36
-68 45 -85 16 -29 39 -115 53 -196 3 -19 11 -55 16 -80 6 -25 13 -56 15 -70 3
-14 23 -110 45 -215 22 -104 57 -273 79 -375 21 -102 55 -260 74 -352 20 -92
36 -169 36 -170 0 -2 -21 -3 -48 -4 -200 -3 -394 -42 -496 -100 -46 -26 -68
-30 -64 -11 1 6 -1 28 -5 47 -14 71 -17 87 -33 170 -9 47 -18 94 -21 105 -2
11 -6 31 -9 45 -2 14 -7 36 -9 50 -3 14 -8 39 -11 55 -3 17 -25 134 -50 260
-38 195 -45 242 -40 310 8 131 47 244 120 355 34 52 124 142 167 167 16 10 29
20 29 24 0 9 -144 -17 -225 -42 -127 -38 -212 -93 -272 -176 l-30 -42 -44 30
c-149 101 -441 205 -634 226 -128 14 -370 7 -460 -12 -11 -3 -31 -7 -45 -9
-14 -2 -54 -11 -90 -21 -341 -87 -573 -263 -693 -524 -66 -145 -72 -308 -17
-472 61 -182 149 -275 318 -334 101 -35 171 -44 312 -40 201 5 374 65 478 163
68 65 98 121 45 84 -43 -29 -170 -78 -250 -96 -163 -36 -314 -10 -443 77 -66
45 -150 135 -173 187 -27 58 -27 147 -2 218 37 102 170 234 288 287 122 53
285 87 425 87 99 0 122 -2 207 -18 89 -16 221 -70 305 -124 122 -77 146 -101
169 -165 17 -49 62 -219 76 -285 2 -8 9 -37 15 -65 25 -108 83 -387 95 -458 3
-15 16 -80 29 -143 l23 -116 -36 -33 c-147 -134 -249 -261 -311 -389 -114
-236 -82 -440 98 -612 55 -53 153 -126 161 -119 2 2 -6 16 -17 32 -82 118
-110 300 -63 423 27 73 101 163 176 216 33 23 61 41 62 40 3 -2 79 -335 87
-381 2 -11 7 -31 10 -45 3 -14 8 -36 10 -50 8 -42 24 -119 55 -265 32 -148 36
-171 47 -244 10 -58 10 -66 1 -120 -17 -98 -83 -199 -167 -254 -25 -16 -36
-26 -25 -23 106 37 384 109 470 121 22 4 47 8 55 10 8 3 44 7 80 11 36 3 76 8
90 9 14 2 68 4 120 4 l95 1 -50 28 c-114 63 -185 125 -206 179 -6 18 -72 379
-84 468 -2 11 -6 36 -10 55 -3 19 -20 114 -36 210 -16 96 -39 229 -50 295 -12
66 -22 125 -22 130 -3 18 145 84 216 96 79 13 169 7 221 -15 57 -24 108 -123
108 -209 1 -107 -40 -202 -144 -334 -26 -35 -43 -63 -37 -63 21 0 153 41 195
60 23 10 58 35 79 54 29 27 41 33 51 25 29 -24 87 -236 143 -523 l40 -199 -95
-134 c-52 -74 -94 -135 -94 -136 0 -1 46 -2 103 -2 93 -1 200 -8 252 -19 237
-48 463 -110 570 -155 11 -5 36 -14 55 -21 19 -7 49 -18 65 -25 17 -7 82 -34
145 -61 63 -26 134 -58 158 -71 23 -13 42 -21 42 -19 0 3 -37 33 -82 67 -255
192 -494 414 -560 519 -39 62 -43 77 -94 350 -3 14 -13 68 -24 120 -10 52 -51
259 -90 460 -39 201 -82 419 -95 485 -13 66 -26 131 -29 145 -2 14 -22 119
-45 233 -23 114 -41 211 -41 214 0 3 11 -2 25 -11 14 -9 60 -35 102 -58 43
-23 110 -59 148 -80 39 -21 89 -49 113 -60 48 -25 46 -5 17 -193 -8 -49 -17
-108 -20 -130 -3 -22 -8 -51 -10 -65 -2 -14 -7 -45 -10 -70 -9 -69 -15 -103
-21 -111 -2 -4 1 -11 7 -15 6 -4 96 79 218 203 l206 209 50 -26 c63 -34 253
-134 324 -172 30 -16 56 -30 57 -31 1 -1 -30 -3 -70 -3 -223 -5 -530 -255
-649 -529 -50 -114 -70 -219 -64 -330 18 -324 180 -636 412 -790 110 -73 274
-133 410 -151 28 -3 53 -8 58 -11 16 -10 306 -12 377 -3 125 16 141 19 243 45
155 40 299 102 437 188 36 23 67 44 70 47 3 3 37 29 76 58 64 48 184 166 364
358 36 38 106 112 155 164 150 159 339 365 411 449 16 19 35 40 42 47 14 15
23 8 -126 98 -51 31 -97 56 -102 56 -7 0 -22 51 -34 120 -7 35 -53 274 -66
340 -6 30 -13 66 -16 80 -2 14 -7 36 -9 50 -3 14 -8 39 -11 55 -7 38 -53 273
-59 302 -4 15 1 23 14 28 50 16 143 140 183 243 l17 44 -34 -26 c-18 -14 -36
-26 -40 -26 -3 0 -22 -10 -43 -23 -55 -34 -88 -23 -122 43 -17 33 -51 153 -63
220 -3 14 -22 99 -42 190 -20 91 -38 172 -40 180 -2 8 -20 89 -41 180 -20 91
-39 175 -42 188 -2 13 13 66 38 128 23 58 40 107 38 109 -2 2 -28 -3 -58 -11
-30 -8 -66 -17 -80 -20 -14 -3 -48 -12 -77 -20 -54 -16 -72 -13 -178 21 -22 7
-114 36 -205 65 -91 28 -228 71 -305 95 -77 25 -250 79 -385 120 -135 42 -254
81 -266 86 -29 14 -44 64 -44 142 l0 67 -107 -5 c-116 -4 -156 -8 -303 -31
-315 -49 -539 -158 -660 -322 -89 -120 -173 -308 -194 -432 -3 -19 -8 -46 -12
-60 -11 -45 -13 -314 -4 -370 6 -30 12 -71 15 -90 5 -42 52 -205 66 -231 5
-11 8 -19 5 -19 -10 0 87 -208 139 -302 30 -53 55 -98 55 -100 0 -2 -10 -5
-22 -6 -13 -1 -78 -10 -145 -20 -68 -11 -123 -18 -123 -16 0 1 -20 105 -45
231 -56 282 -54 271 -61 313 -3 19 -7 37 -9 40 -2 3 -6 26 -10 50 -3 25 -10
61 -15 80 -5 19 -12 53 -15 75 -4 22 -10 56 -14 75 -4 20 -7 44 -5 55 1 11 5
40 8 65 19 152 83 363 153 505 110 222 260 369 485 474 133 63 254 98 438 125
130 20 497 27 685 13 50 -4 126 -9 170 -12 l80 -6 -50 25 c-116 59 -343 146
-415 159 -14 3 -52 12 -85 21 -33 8 -87 18 -120 22 -60 7 -213 12 -218 8z
m-32 -828 c117 -8 144 -15 150 -40 3 -11 19 -86 36 -166 17 -80 44 -208 60
-285 17 -77 32 -151 35 -165 3 -14 14 -68 25 -120 11 -52 23 -106 25 -120 3
-14 11 -53 19 -88 8 -34 17 -77 20 -95 3 -17 8 -39 10 -47 2 -8 7 -31 10 -50
3 -19 10 -50 15 -68 10 -39 19 -34 -120 -62 -119 -23 -119 -23 -219 -44 -41
-9 -75 -15 -77 -14 -3 4 -113 176 -236 370 -51 81 -96 148 -99 148 -3 0 -6 -6
-6 -12 0 -14 -12 -143 -19 -218 -3 -25 -6 -63 -8 -85 -2 -22 -7 -76 -11 -120
-8 -94 -12 -122 -19 -133 -5 -8 -56 -14 -125 -16 -32 -1 -36 2 -51 44 -9 25
-19 52 -22 60 -4 8 -9 24 -11 35 -3 11 -17 61 -30 110 -14 50 -30 126 -37 170
-6 44 -14 94 -17 110 -13 79 -3 290 18 380 5 22 12 51 15 65 3 14 25 67 50
117 49 103 132 200 214 253 59 38 166 76 241 85 30 4 56 8 57 10 2 2 9 2 15 0
7 -2 48 -6 92 -9z m1110 -438 c93 -32 235 -97 270 -123 19 -15 25 -40 169
-735 25 -118 57 -269 71 -335 14 -66 27 -129 29 -140 2 -11 13 -63 24 -115 12
-52 24 -111 27 -130 4 -19 8 -39 9 -45 2 -5 6 -28 10 -50 4 -22 12 -53 17 -70
4 -16 11 -46 14 -65 3 -19 10 -53 15 -75 5 -22 12 -56 15 -75 3 -19 8 -43 11
-52 3 -9 7 -27 9 -40 2 -13 14 -71 26 -129 l22 -106 -23 -69 c-29 -88 -97
-248 -127 -296 -13 -21 -23 -40 -23 -43 0 -11 -77 -125 -135 -200 -211 -270
-516 -437 -820 -447 -181 -6 -512 76 -685 169 -165 89 -264 202 -295 338 -12
48 -12 154 -1 204 40 180 177 355 323 411 79 31 198 31 248 0 51 -31 78 -75
79 -125 0 -43 0 -43 26 -29 102 56 170 182 172 317 2 115 -14 155 -92 230 -39
37 -81 72 -94 77 -16 6 -34 28 -50 62 -13 29 -52 112 -86 183 -91 191 -120
255 -120 263 0 4 65 75 144 157 l144 150 7 -40 c4 -22 11 -53 15 -70 5 -16 12
-50 15 -75 4 -24 8 -47 10 -51 2 -3 7 -19 9 -35 3 -16 8 -38 10 -49 28 -134
37 -179 40 -184 2 -3 7 -22 10 -41 3 -19 17 -89 31 -155 14 -66 28 -133 31
-150 3 -16 7 -34 8 -40 4 -16 25 -117 30 -145 5 -25 36 -168 96 -450 17 -80
49 -233 71 -340 23 -107 43 -197 45 -199 4 -5 -35 -59 -77 -106 -86 -96 -168
-205 -159 -210 9 -6 115 0 169 10 15 3 63 16 107 30 211 69 409 225 579 457
25 33 45 63 45 67 0 4 -21 17 -47 30 -110 53 -151 107 -178 231 -4 18 -74 365
-81 400 -3 14 -57 284 -120 600 -64 316 -118 586 -120 600 -4 20 -52 267 -68
346 -60 297 -76 374 -80 399 -3 17 -12 62 -21 100 -8 39 -15 75 -15 82 0 13
168 -29 315 -79z"/>
</g>
</svg>
